{
  "accessors": [
    {
      "bufferView": 2,
      "componentType": 5126,
      "count": 36730,
      "max": [
        7.180484771728516,
        1.0,
        7.4300055503845215
      ],
      "min": [
        -7.1099348068237305,
        -2.471350908279419,
        -6.268688678741455
      ],
      "type": "VEC3"
    },
    {
      "bufferView": 2,
      "byteOffset": 440760,
      "componentType": 5126,
      "count": 36730,
      "max": [
        1.0,
        1.0,
        1.0
      ],
      "min": [
        -1.0,
        -1.0,
        -0.9997002482414246
      ],
      "type": "VEC3"
    },
    {
      "bufferView": 1,
      "componentType": 5126,
      "count": 36730,
      "max": [
        0.0,
        0.0
      ],
      "min": [
        0.0,
        0.0
      ],
      "type": "VEC2"
    },
    {
      "bufferView": 0,
      "componentType": 5125,
      "count": 90798,
      "type": "SCALAR"
    },
    {
      "bufferView": 2,
      "byteOffset": 881520,
      "componentType": 5126,
      "count": 690,
      "max": [
        0.6557230353355408,
        7.643013954162598,
        0.6474361419677734
      ],
      "min": [
        -0.6557230353355408,
        0.7905047535896301,
        -0.6640099287033081
      ],
      "type": "VEC3"
    },
    {
      "bufferView": 2,
      "byteOffset": 889800,
      "componentType": 5126,
      "count": 690,
      "max": [
        0.9951848387718201,
        1.0,
        0.9951848387718201
      ],
      "min": [
        -0.9951848387718201,
        -1.0,
        -0.9951848387718201
      ],
      "type": "VEC3"
    },
    {
      "bufferView": 1,
      "byteOffset": 293840,
      "componentType": 5126,
      "count": 690,
      "max": [
        1.0,
        1.0
      ],
      "min": [
        0.0,
        0.01000000536441803
      ],
      "type": "VEC2"
    },
    {
      "bufferView": 0,
      "byteOffset": 363192,
      "componentType": 5125,
      "count": 1140,
      "type": "SCALAR"
    },
    {
      "bufferView": 2,
      "byteOffset": 898080,
      "componentType": 5126,
      "count": 21080,
      "max": [
        7.636401653289795,
        17.004060745239258,
        2.860008716583252
      ],
      "min": [
        -9.514663696289063,
        7.689376354217529,
        -8.240333557128906
      ],
      "type": "VEC3"
    },
    {
      "bufferView": 2,
      "byteOffset": 1151040,
      "componentType": 5126,
      "count": 21080,
      "max": [
        1.0,
        1.0,
        0.9999071359634399
      ],
      "min": [
        -1.0,
        -1.0,
        -0.9999071359634399
      ],
      "type": "VEC3"
    },
    {
      "bufferView": 1,
      "byteOffset": 299360,
      "componentType": 5126,
      "count": 21080,
      "max": [
        0.8750000596046448,
        1.0008716583251953
      ],
      "min": [
        0.0,
        0.0
      ],
      "type": "VEC2"
    },
    {
      "bufferView": 0,
      "byteOffset": 367752,
      "componentType": 5125,
      "count": 109674,
      "type": "SCALAR"
    },
    {
      "bufferView": 2,
      "byteOffset": 1404000,
      "componentType": 5126,
      "count": 533,
      "max": [
        5.9257683753967285,
        11.758506774902344,
        5.834430694580078
      ],
      "min": [
        -5.925767421722412,
        9.477330207824707,
        -5.549393177032471
      ],
      "type": "VEC3"
    },
    {
      "bufferView": 2,
      "byteOffset": 1410396,
      "componentType": 5126,
      "count": 533,
      "max": [
        0.9999974966049194,
        0.9999852180480957,
        0.999998152256012
      ],
      "min": [
        -0.9999975562095642,
        -1.0,
        -0.9999988079071045
      ],
      "type": "VEC3"
    },
    {
      "bufferView": 1,
      "byteOffset": 468000,
      "componentType": 5126,
      "count": 533,
      "max": [
        1.859086513519287,
        2.312115430831909
      ],
      "min": [
        -0.8590863943099976,
        -1.31211519241333
      ],
      "type": "VEC2"
    },
    {
      "bufferView": 0,
      "byteOffset": 806448,
      "componentType": 5125,
      "count": 2688,
      "type": "SCALAR"
    },
    {
      "bufferView": 2,
      "byteOffset": 1416792,
      "componentType": 5126,
      "count": 1145,
      "max": [
        6.994409084320068,
        26.317981719970703,
        -3.563377857208252
      ],
      "min": [
        -6.994408130645752,
        10.933161735534668,
        -8.134540557861328
      ],
      "type": "VEC3"
    },
    {
      "bufferView": 2,
      "byteOffset": 1430532,
      "componentType": 5126,
      "count": 1145,
      "max": [
        0.9982447028160095,
        0.9909668564796448,
        0.9998236298561096
      ],
      "min": [
        -0.9982447624206543,
        -0.9989476203918457,
        -0.9999908208847046
      ],
      "type": "VEC3"
    },
    {
      "bufferView": 1,
      "byteOffset": 472264,
      "componentType": 5126,
      "count": 1145,
      "max": [
        2.118192195892334,
        2.6575896739959717
      ],
      "min": [
        -1.1181920766830444,
        -1.6575894355773926
      ],
      "type": "VEC2"
    },
    {
      "bufferView": 0,
      "byteOffset": 817200,
      "componentType": 5125,
      "count": 6336,
      "type": "SCALAR"
    },
    {
      "bufferView": 2,
      "byteOffset": 1444272,
      "componentType": 5126,
      "count": 297,
      "max": [
        2.802530288696289,
        16.659984588623047,
        -5.562305927276611
      ],
      "min": [
        -2.802530288696289,
        13.463324546813965,
        -7.08857536315918
      ],
      "type": "VEC3"
    },
    {
      "bufferView": 2,
      "byteOffset": 1447836,
      "componentType": 5126,
      "count": 297,
      "max": [
        0.999963641166687,
        0.9892866611480713,
        0.9998714327812195
      ],
      "min": [
        -0.999963641166687,
        -0.9931617975234985,
        -0.9995899796485901
      ],
      "type": "VEC3"
    },
    {
      "bufferView": 1,
      "byteOffset": 481424,
      "componentType": 5126,
      "count": 297,
      "max": [
        0.8750001192092896,
        1.0000001192092896
      ],
      "min": [
        0.125,
        0.0
      ],
      "type": "VEC2"
    },
    {
      "bufferView": 0,
      "byteOffset": 842544,
      "componentType": 5125,
      "count": 1536,
      "type": "SCALAR"
    }
  ],
  "asset": {
    "extras": {
      "author": "Superenforcer_xp (https://sketchfab.com/Superenforcer_xp)",
      "license": "CC-BY-4.0 (http://creativecommons.org/licenses/by/4.0/)",
      "source": "https://sketchfab.com/3d-models/office-chair-386d877c73464a6dba548839a31aedb3",
      "title": "Office Chair"
    },
    "generator": "Sketchfab-14.87.0",
    "version": "2.0"
  },
  "bufferViews": [
    {
      "buffer": 0,
      "byteLength": 848688,
      "name": "floatBufferViews",
      "target": 34963
    },
    {
      "buffer": 0,
      "byteLength": 483800,
      "byteOffset": 848688,
      "byteStride": 8,
      "name": "floatBufferViews",
      "target": 34962
    },
    {
      "buffer": 0,
      "byteLength": 1451400,
      "byteOffset": 1332488,
      "byteStride": 12,
      "name": "floatBufferViews",
      "target": 34962
    }
  ],
  "buffers": [
    {
      "byteLength": 2783888,
      "uri": "scene.bin"
    }
  ],
  "materials": [
    {
      "doubleSided": true,
      "name": "Material.003",
      "pbrMetallicRoughness": {
        "baseColorFactor": [
          0.0210905,
          0.0210905,
          0.0210905,
          1.0
        ],
        "metallicFactor": 0.0,
        "roughnessFactor": 0.5
      }
    },
    {
      "doubleSided": true,
      "name": "Material.001",
      "pbrMetallicRoughness": {
        "baseColorFactor": [
          0.032509,
          0.0356538,
          0.0534202,
          1.0
        ],
        "metallicFactor": 0.0
      }
    },
    {
      "doubleSided": true,
      "name": "FabricAnimalBlueVinyl001_4K"
    }
  ],
  "meshes": [
    {
      "name": "Object_0",
      "primitives": [
        {
          "attributes": {
            "NORMAL": 1,
            "POSITION": 0,
            "TEXCOORD_0": 2
          },
          "indices": 3,
          "material": 0,
          "mode": 4
        }
      ]
    },
    {
      "name": "Object_1",
      "primitives": [
        {
          "attributes": {
            "NORMAL": 5,
            "POSITION": 4,
            "TEXCOORD_0": 6
          },
          "indices": 7,
          "material": 0,
          "mode": 4
        }
      ]
    },
    {
      "name": "Object_2",
      "primitives": [
        {
          "attributes": {
            "NORMAL": 9,
            "POSITION": 8,
            "TEXCOORD_0": 10
          },
          "indices": 11,
          "material": 1,
          "mode": 4
        }
      ]
    },
    {
      "name": "Object_3",
      "primitives": [
        {
          "attributes": {
            "NORMAL": 13,
            "POSITION": 12,
            "TEXCOORD_0": 14
          },
          "indices": 15,
          "material": 2,
          "mode": 4
        }
      ]
    },
    {
      "name": "Object_4",
      "primitives": [
        {
          "attributes": {
            "NORMAL": 17,
            "POSITION": 16,
            "TEXCOORD_0": 18
          },
          "indices": 19,
          "material": 2,
          "mode": 4
        }
      ]
    },
    {
      "name": "Object_5",
      "primitives": [
        {
          "attributes": {
            "NORMAL": 21,
            "POSITION": 20,
            "TEXCOORD_0": 22
          },
          "indices": 23,
          "material": 2,
          "mode": 4
        }
      ]
    }
  ],
  "nodes": [
    {
      "children": [
        1
      ],
      "matrix": [
        1.0,
        0.0,
        0.0,
        0.0,
        0.0,
        2.220446049250313e-16,
        -1.0,
        0.0,
        0.0,
        1.0,
        2.220446049250313e-16,
        0.0,
        0.0,
        0.0,
        0.0,
        1.0
      ],
      "name": "Sketchfab_model"
    },
    {
      "children": [
        2
      ],
      "name": "root"
    },
    {
      "children": [
        3,
        5,
        7,
        9,
        11,
        13
      ],
      "matrix": [
        1.0,
        0.0,
        0.0,
        0.0,
        0.0,
        2.220446049250313e-16,
        1.0,
        0.0,
        0.0,
        -1.0,
        2.220446049250313e-16,
        0.0,
        0.0,
        0.0,
        0.0,
        1.0
      ],
      "name": "GLTF_SceneRootNode"
    },
    {
      "children": [
        4
      ],
      "name": "Circle_2"
    },
    {
      "mesh": 0,
      "name": "Object_4"
    },
    {
      "children": [
        6
      ],
      "name": "Cylinder_3"
    },
    {
      "mesh": 1,
      "name": "Object_6"
    },
    {
      "children": [
        8
      ],
      "name": "Cube_4"
    },
    {
      "mesh": 2,
      "name": "Object_8"
    },
    {
      "children": [
        10
      ],
      "name": "Cube.001_5"
    },
    {
      "mesh": 3,
      "name": "Object_10"
    },
    {
      "children": [
        12
      ],
      "name": "Cube.002_6"
    },
    {
      "mesh": 4,
      "name": "Object_12"
    },
    {
      "children": [
        14
      ],
      "name": "Cube.003_7"
    },
    {
      "mesh": 5,
      "name": "Object_14"
    }
  ],
  "scene": 0,
  "scenes": [
    {
      "name": "Sketchfab_Scene",
      "nodes": [
        0
      ]
    }
  ]
}
